# xmcd
#
# Track frame offsets:
#	150
#	16428
#	32387
#	46229
#	62162
#	76834
#	94306
#	109044
#	125168
#	138493
#	155180
#	174638
#	190399
#	203322
#	219080
#	235352
#	252621
#	270438
#	282571
#
# Disc length: 3977 seconds
#
# Revision: 1
# Processed by: cddbd v1.5.2PL0 Copyright (c) Steve Scherf et al.
# Submitted via: audiograbber 1.83.01
#
DISCID=130f8713
DTITLE=Various Artist - Hott Country 203
DYEAR=2013
DGENRE=Country
TTITLE0=Rascal Flatts - Changed
TTITLE1=Blake Shelton - Sure Be Cool If You Did
TTITLE2=Henningsens - American Beautiful
TTITLE3=Dallas Smith - What Kinda Love
TTITLE4=Toby Keith - Cold Beer Country
TTITLE5=Jason Kirkness - Leavin
TTITLE6=Florida Georgia  Line - Get Your Shine On
TTITLE7=Kid Rock - Happy  New Year ( Clean Country Edit )
TTITLE8=Big and Rich - Party Like Cowboyz
TTITLE9=Autumn Hill - Anything At All
TTITLE10=Wyatt - Jesse James
TTITLE11=Jamey Johnson Feat Leon Russel and Willie Nelson - Everything But You
TTITLE12=Miranda Lambert - Mama's Broken Heart
TTITLE13=Dean  Brody - Underneath The Apple Tree
TTITLE14=Alee - Don't Say You Love Me
TTITLE15=Train Feat Ashley Monroe - Bruises
TTITLE16=Darius Rucker - Wagon Wheel
TTITLE17=Easton Corbin - All Over The Road
TTITLE18=Kix Brooks - Moonshine Road
EXTD=January 2013
EXTT0=
EXTT1=
EXTT2=
EXTT3=
EXTT4=
EXTT5=
EXTT6=
EXTT7=
EXTT8=
EXTT9=
EXTT10=
EXTT11=
EXTT12=
EXTT13=
EXTT14=
EXTT15=
EXTT16=
EXTT17=
EXTT18=
PLAYORDER=
